<svg width="24" height="24" viewBox="0 0 24 24" fill="none" xmlns="http://www.w3.org/2000/svg">
<rect width="24" height="24" rx="4.17391" fill="url(#paint0_linear_28_1129)"/>
<path d="M14.9945 8.51549C14.9954 8.51215 14.9959 8.51048 14.9961 8.50971C15.1431 7.99432 15.8735 7.99432 16.0205 8.50971C16.0207 8.51048 16.0212 8.51215 16.0221 8.51549C16.0246 8.52429 16.0258 8.52869 16.027 8.53282C16.7099 10.9444 18.5947 12.8292 21.0063 13.5122C21.0104 13.5133 21.0148 13.5146 21.0236 13.517C21.027 13.518 21.0287 13.5185 21.0294 13.5187C21.5448 13.6657 21.5448 14.3961 21.0294 14.543C21.0287 14.5433 21.027 14.5437 21.0236 14.5447C21.0148 14.5472 21.0104 14.5484 21.0063 14.5496C18.5947 15.2325 16.7099 17.1173 16.027 19.5289C16.0258 19.533 16.0246 19.5374 16.0221 19.5462C16.0212 19.5496 16.0207 19.5512 16.0205 19.552C15.8735 20.0674 15.1431 20.0674 14.9961 19.552C14.9959 19.5512 14.9954 19.5496 14.9945 19.5462C14.992 19.5374 14.9907 19.533 14.9896 19.5289C14.3066 17.1173 12.4218 15.2325 10.0102 14.5496C10.0061 14.5484 10.0017 14.5472 9.99291 14.5447C9.98957 14.5437 9.9879 14.5433 9.98713 14.543C9.47174 14.3961 9.47174 13.6657 9.98713 13.5187C9.9879 13.5185 9.98957 13.518 9.99291 13.517C10.0017 13.5146 10.0061 13.5133 10.0102 13.5122C12.4218 12.8292 14.3066 10.9444 14.9896 8.53282C14.9907 8.52869 14.992 8.52429 14.9945 8.51549Z" fill="white"/>
<path d="M7.49723 3.88848C7.4977 3.88681 7.49794 3.88598 7.49805 3.88559C7.57154 3.6279 7.93674 3.6279 8.01023 3.88559C8.01034 3.88598 8.01058 3.88681 8.01105 3.88848C8.01229 3.89288 8.01291 3.89508 8.01349 3.89715C8.35496 5.10294 9.29737 6.04535 10.5032 6.38682C10.5052 6.3874 10.5074 6.38802 10.5118 6.38926C10.5135 6.38973 10.5143 6.38997 10.5147 6.39008C10.7724 6.46356 10.7724 6.82877 10.5147 6.90226C10.5143 6.90237 10.5135 6.9026 10.5118 6.90307C10.5074 6.90432 10.5052 6.90494 10.5032 6.90552C9.29737 7.24699 8.35496 8.1894 8.01349 9.39519C8.01291 9.39725 8.01229 9.39945 8.01105 9.40385C8.01058 9.40552 8.01034 9.40636 8.01023 9.40674C7.93674 9.66444 7.57154 9.66444 7.49805 9.40674C7.49794 9.40636 7.4977 9.40552 7.49723 9.40385C7.49599 9.39945 7.49537 9.39725 7.49479 9.39519C7.15332 8.1894 6.21091 7.24699 5.00512 6.90552C5.00306 6.90494 5.00086 6.90432 4.99646 6.90307C4.99479 6.9026 4.99395 6.90237 4.99356 6.90226C4.73587 6.82877 4.73587 6.46356 4.99356 6.39008C4.99395 6.38997 4.99479 6.38973 4.99646 6.38926C5.00086 6.38802 5.00306 6.3874 5.00512 6.38682C6.21091 6.04535 7.15332 5.10294 7.49479 3.89715C7.49537 3.89508 7.49599 3.89288 7.49723 3.88848Z" fill="white"/>
<path d="M6.99156 16.7748C6.99194 16.7734 6.99213 16.7728 6.99222 16.7725C7.05193 16.5631 7.34866 16.5631 7.40837 16.7725C7.40846 16.7728 7.40865 16.7734 7.40903 16.7748C7.41004 16.7784 7.41054 16.7802 7.41102 16.7818C7.68846 17.7615 8.45417 18.5273 9.43387 18.8047C9.43555 18.8052 9.43734 18.8057 9.44091 18.8067C9.44227 18.8071 9.44295 18.8073 9.44326 18.8073C9.65264 18.8671 9.65264 19.1638 9.44326 19.2235C9.44295 19.2236 9.44227 19.2238 9.44091 19.2242C9.43734 19.2252 9.43555 19.2257 9.43387 19.2261C8.45417 19.5036 7.68846 20.2693 7.41102 21.249C7.41054 21.2507 7.41004 21.2525 7.40903 21.256C7.40865 21.2574 7.40846 21.2581 7.40837 21.2584C7.34866 21.4678 7.05193 21.4678 6.99222 21.2584C6.99213 21.2581 6.99194 21.2574 6.99156 21.256C6.99055 21.2525 6.99004 21.2507 6.98957 21.249C6.71213 20.2693 5.94642 19.5036 4.96672 19.2261C4.96504 19.2257 4.96325 19.2252 4.95967 19.2242C4.95832 19.2238 4.95764 19.2236 4.95733 19.2235C4.74795 19.1638 4.74795 18.8671 4.95733 18.8073C4.95764 18.8073 4.95832 18.8071 4.95967 18.8067C4.96325 18.8057 4.96504 18.8052 4.96672 18.8047C5.94642 18.5273 6.71213 17.7615 6.98957 16.7818C6.99004 16.7802 6.99055 16.7784 6.99156 16.7748Z" fill="white"/>
<defs>
<linearGradient id="paint0_linear_28_1129" x1="-13.5652" y1="29.7392" x2="20.416" y2="-9.12883" gradientUnits="userSpaceOnUse">
<stop stop-color="#FF3BFF"/>
<stop offset="0.353238" stop-color="#5DDDFB"/>
<stop offset="0.758263" stop-color="#6F16DB"/>
<stop offset="1" stop-color="#D94FD5"/>
</linearGradient>
</defs>
</svg>
