<svg width="201" height="68" viewBox="0 0 201 68" fill="none" xmlns="http://www.w3.org/2000/svg">
<rect y="14.0591" width="39.882" height="39.882" rx="6.936" fill="url(#paint0_linear_28_1142)"/>
<path d="M24.9164 28.2097C24.918 28.2042 24.9188 28.2014 24.9191 28.2001C25.1633 27.3437 26.3771 27.3437 26.6213 28.2001C26.6217 28.2014 26.6225 28.2042 26.6241 28.2097C26.6282 28.2244 26.6302 28.2317 26.6322 28.2385C27.767 32.246 30.8992 35.3781 34.9066 36.513C34.9135 36.5149 34.9208 36.517 34.9354 36.5211C34.9409 36.5226 34.9437 36.5234 34.945 36.5238C35.8015 36.768 35.8015 37.9818 34.945 38.226C34.9437 38.2264 34.9409 38.2272 34.9354 38.2287C34.9208 38.2329 34.9135 38.2349 34.9066 38.2369C30.8992 39.3717 27.767 42.5038 26.6322 46.5113C26.6302 46.5181 26.6282 46.5254 26.6241 46.5401C26.6225 46.5456 26.6217 46.5484 26.6213 46.5497C26.3771 47.4061 25.1633 47.4061 24.9191 46.5497C24.9188 46.5484 24.918 46.5456 24.9164 46.5401C24.9123 46.5254 24.9102 46.5181 24.9083 46.5113C23.7734 42.5038 20.6413 39.3717 16.6339 38.2369C16.627 38.2349 16.6197 38.2329 16.6051 38.2287C16.5995 38.2272 16.5967 38.2264 16.5955 38.226C15.739 37.9818 15.739 36.768 16.5955 36.5238C16.5967 36.5234 16.5995 36.5226 16.6051 36.5211C16.6197 36.517 16.627 36.5149 16.6339 36.513C20.6413 35.3781 23.7734 32.246 24.9083 28.2385C24.9102 28.2317 24.9123 28.2244 24.9164 28.2097Z" fill="white"/>
<path d="M12.4582 20.5208C12.459 20.518 12.4594 20.5166 12.4596 20.516C12.5817 20.0878 13.1886 20.0878 13.3107 20.516C13.3109 20.5166 13.3112 20.518 13.312 20.5208C13.3141 20.5281 13.3151 20.5318 13.3161 20.5352C13.8835 22.5389 15.4496 24.105 17.4533 24.6724C17.4567 24.6734 17.4604 24.6744 17.4677 24.6765C17.4705 24.6772 17.4719 24.6776 17.4725 24.6778C17.9007 24.7999 17.9007 25.4068 17.4725 25.5289C17.4719 25.5291 17.4705 25.5295 17.4677 25.5303C17.4604 25.5324 17.4567 25.5334 17.4533 25.5344C15.4496 26.1018 13.8835 27.6678 13.3161 29.6716C13.3151 29.675 13.3141 29.6786 13.312 29.686C13.3112 29.6887 13.3109 29.6901 13.3107 29.6908C13.1886 30.119 12.5817 30.119 12.4596 29.6908C12.4594 29.6901 12.459 29.6887 12.4582 29.686C12.4561 29.6786 12.4551 29.675 12.4541 29.6716C11.8867 27.6678 10.3207 26.1018 8.31694 25.5344C8.3135 25.5334 8.30985 25.5324 8.30254 25.5303C8.29976 25.5295 8.29837 25.5291 8.29773 25.5289C7.86951 25.4068 7.86951 24.7999 8.29773 24.6778C8.29837 24.6776 8.29976 24.6772 8.30254 24.6765C8.30985 24.6744 8.3135 24.6734 8.31694 24.6724C10.3207 24.105 11.8867 22.5389 12.4541 20.5352C12.4551 20.5318 12.4561 20.5281 12.4582 20.5208Z" fill="white"/>
<path d="M11.6179 41.9347C11.6185 41.9324 11.6188 41.9313 11.619 41.9307C11.7182 41.5828 12.2113 41.5828 12.3105 41.9307C12.3107 41.9313 12.311 41.9324 12.3116 41.9347C12.3133 41.9406 12.3141 41.9436 12.3149 41.9464C12.776 43.5744 14.0484 44.8468 15.6764 45.3078C15.6792 45.3086 15.6822 45.3095 15.6881 45.3111C15.6904 45.3118 15.6915 45.3121 15.692 45.3122C16.0399 45.4115 16.0399 45.9045 15.692 46.0038C15.6915 46.0039 15.6904 46.0042 15.6881 46.0049C15.6822 46.0065 15.6792 46.0074 15.6764 46.0082C14.0484 46.4692 12.776 47.7416 12.3149 49.3696C12.3141 49.3724 12.3133 49.3754 12.3116 49.3813C12.311 49.3836 12.3107 49.3847 12.3105 49.3853C12.2113 49.7332 11.7182 49.7332 11.619 49.3853C11.6188 49.3847 11.6185 49.3836 11.6179 49.3813C11.6162 49.3754 11.6154 49.3724 11.6146 49.3696C11.1536 47.7416 9.88114 46.4692 8.25312 46.0082C8.25033 46.0074 8.24736 46.0065 8.24142 46.0049C8.23916 46.0042 8.23803 46.0039 8.23751 46.0038C7.88958 45.9045 7.88958 45.4115 8.23751 45.3122C8.23803 45.3121 8.23916 45.3118 8.24142 45.3111C8.24736 45.3095 8.25033 45.3086 8.25312 45.3078C9.88114 44.8468 11.1536 43.5744 11.6146 41.9464C11.6154 41.9436 11.6162 41.9406 11.6179 41.9347Z" fill="white"/>
<path d="M53.5652 54C53.1442 54 52.8188 53.8852 52.5892 53.6555C52.3596 53.3876 52.2447 53.0623 52.2447 52.6796V15.1914C52.2447 14.7704 52.3596 14.4451 52.5892 14.2155C52.8188 13.9476 53.1442 13.8136 53.5652 13.8136H69.2953C72.1657 13.8136 74.5004 14.292 76.2992 15.2488C78.1363 16.1674 79.4758 17.4304 80.3178 19.0378C81.1981 20.6453 81.6382 22.4441 81.6382 24.4343C81.6382 26.0035 81.3703 27.3622 80.8345 28.5103C80.337 29.6202 79.7055 30.5388 78.94 31.266C78.1745 31.9549 77.4282 32.4907 76.701 32.8734C78.1937 33.6006 79.5141 34.7871 80.6623 36.4328C81.8487 38.0785 82.442 40.0687 82.442 42.4034C82.442 44.5084 81.9635 46.4411 81.0067 48.2017C80.0499 49.9622 78.6147 51.3783 76.701 52.45C74.8257 53.4833 72.491 54 69.6971 54H53.5652ZM57.8708 49.3499H68.9508C71.4385 49.3499 73.3522 48.6801 74.6917 47.3405C76.0313 46.001 76.701 44.3553 76.701 42.4034C76.701 40.3749 76.0313 38.71 74.6917 37.4088C73.3522 36.0692 71.4385 35.3994 68.9508 35.3994H57.8708V49.3499ZM57.8708 30.8067H68.4341C70.8836 30.8067 72.7398 30.2518 74.0028 29.1418C75.2658 27.9937 75.8973 26.4436 75.8973 24.4917C75.8973 22.5398 75.2658 21.0472 74.0028 20.0138C72.7398 18.9804 70.8836 18.4637 68.4341 18.4637H57.8708V30.8067ZM100.581 54.5741C96.6394 54.5741 93.501 53.3685 91.1664 50.9573C88.8317 48.5079 87.5496 45.1781 87.3199 40.9681C87.2817 40.4706 87.2625 39.8391 87.2625 39.0736C87.2625 38.2699 87.2817 37.6193 87.3199 37.1217C87.473 34.4043 88.1045 32.0314 89.2144 30.003C90.3244 27.9362 91.8361 26.3479 93.7498 25.238C95.7017 24.1281 97.9789 23.5732 100.581 23.5732C103.49 23.5732 105.921 24.1855 107.872 25.4102C109.863 26.635 111.374 28.3764 112.408 30.6345C113.441 32.8926 113.958 35.5334 113.958 38.5569V39.5329C113.958 39.9539 113.824 40.2792 113.556 40.5089C113.326 40.7385 113.02 40.8533 112.637 40.8533H92.7738C92.7738 40.8916 92.7738 40.9681 92.7738 41.0829C92.7738 41.1978 92.7738 41.2934 92.7738 41.37C92.8504 42.9392 93.1948 44.4127 93.8072 45.7905C94.4195 47.13 95.2998 48.2208 96.448 49.0628C97.5962 49.9048 98.974 50.3258 100.581 50.3258C101.959 50.3258 103.107 50.1153 104.026 49.6943C104.945 49.2733 105.691 48.814 106.265 48.3165C106.839 47.7807 107.222 47.3788 107.413 47.1109C107.758 46.6134 108.026 46.3263 108.217 46.2498C108.408 46.1349 108.714 46.0775 109.135 46.0775H111.891C112.274 46.0775 112.58 46.1924 112.81 46.422C113.078 46.6134 113.192 46.9004 113.154 47.2831C113.116 47.8572 112.81 48.5653 112.236 49.4073C111.661 50.211 110.839 51.0147 109.767 51.8185C108.695 52.6222 107.394 53.292 105.863 53.8278C104.332 54.3253 102.572 54.5741 100.581 54.5741ZM92.7738 36.8921H108.504V36.7198C108.504 34.9976 108.179 33.4667 107.528 32.1271C106.916 30.7876 106.016 29.7351 104.83 28.9696C103.643 28.1659 102.227 27.764 100.581 27.764C98.9357 27.764 97.5196 28.1659 96.3332 28.9696C95.185 29.7351 94.3047 30.7876 93.6924 32.1271C93.08 33.4667 92.7738 34.9976 92.7738 36.7198V36.8921ZM121.052 54C120.669 54 120.344 53.8852 120.076 53.6555C119.846 53.3876 119.731 53.0623 119.731 52.6796V14.5599C119.731 14.1772 119.846 13.871 120.076 13.6414C120.344 13.3735 120.669 13.2395 121.052 13.2395H123.75C124.171 13.2395 124.496 13.3735 124.726 13.6414C124.956 13.871 125.07 14.1772 125.07 14.5599V52.6796C125.07 53.0623 124.956 53.3876 124.726 53.6555C124.496 53.8852 124.171 54 123.75 54H121.052Z" fill="#0A0A0A"/>
<path d="M136.79 54C136.484 54 136.216 53.8852 135.987 53.6555C135.757 53.4259 135.642 53.158 135.642 52.8518C135.642 52.6605 135.661 52.45 135.7 52.2203L149.937 15.0766C150.09 14.6939 150.301 14.3877 150.569 14.1581C150.836 13.9284 151.238 13.8136 151.774 13.8136H155.678C156.175 13.8136 156.558 13.9284 156.826 14.1581C157.132 14.3877 157.362 14.6939 157.515 15.0766L171.695 52.2203C171.772 52.45 171.81 52.6605 171.81 52.8518C171.81 53.158 171.695 53.4259 171.465 53.6555C171.236 53.8852 170.968 54 170.662 54H167.734C167.275 54 166.93 53.8852 166.7 53.6555C166.509 53.4259 166.375 53.2154 166.299 53.024L163.141 44.8719H144.311L141.153 53.024C141.115 53.2154 140.981 53.4259 140.752 53.6555C140.522 53.8852 140.177 54 139.718 54H136.79ZM145.976 39.9348H161.476L153.726 19.5545L145.976 39.9348ZM177.374 54C176.991 54 176.666 53.8852 176.398 53.6555C176.168 53.3876 176.054 53.0623 176.054 52.6796V25.4677C176.054 25.0849 176.168 24.7787 176.398 24.5491C176.666 24.2812 176.991 24.1472 177.374 24.1472H180.13C180.512 24.1472 180.819 24.2812 181.048 24.5491C181.278 24.7787 181.393 25.0849 181.393 25.4677V52.6796C181.393 53.0623 181.278 53.3876 181.048 53.6555C180.819 53.8852 180.512 54 180.13 54H177.374ZM176.915 18.5786C176.532 18.5786 176.207 18.4637 175.939 18.2341C175.709 17.9662 175.594 17.6409 175.594 17.2581V14.1581C175.594 13.7753 175.709 13.4691 175.939 13.2395C176.207 12.9716 176.532 12.8376 176.915 12.8376H180.532C180.914 12.8376 181.221 12.9716 181.45 13.2395C181.718 13.4691 181.852 13.7753 181.852 14.1581V17.2581C181.852 17.6409 181.718 17.9662 181.45 18.2341C181.221 18.4637 180.914 18.5786 180.532 18.5786H176.915Z" fill="url(#paint1_linear_28_1142)"/>
<defs>
<linearGradient id="paint0_linear_28_1142" x1="-22.542" y1="63.4782" x2="33.9263" y2="-1.11069" gradientUnits="userSpaceOnUse">
<stop stop-color="#FF3BFF"/>
<stop offset="0.353238" stop-color="#5DDDFB"/>
<stop offset="0.758263" stop-color="#6F16DB"/>
<stop offset="1" stop-color="#D94FD5"/>
</linearGradient>
<linearGradient id="paint1_linear_28_1142" x1="113.518" y1="68" x2="188.597" y2="21.1764" gradientUnits="userSpaceOnUse">
<stop stop-color="#FF3BFF"/>
<stop offset="0.380208" stop-color="#5DDDFB"/>
<stop offset="0.758263" stop-color="#6F16DB"/>
<stop offset="1" stop-color="#D94FD5"/>
</linearGradient>
</defs>
</svg>
